<?xml version="1.0" encoding="utf-8"?>
<!-- Generator: Adobe Illustrator 26.3.1, SVG Export Plug-In . SVG Version: 6.00 Build 0)  -->
<svg version="1.1" id="Layer_1" xmlns="http://www.w3.org/2000/svg" xmlns:xlink="http://www.w3.org/1999/xlink" x="0px" y="0px"
	 viewBox="0 0 1400 430.2" style="enable-background:new 0 0 1400 430.2;" xml:space="preserve">
<style type="text/css">
	.st0{fill:#E84E1B;}
	.st1{fill:#FFFFFF;}
</style>
<g>
	<g>
		<g>
			<path class="st0" d="M124.1,173.8h50.2c2.6,0,5,1.1,6.7,3.1l44.1,51.7c1.7,1.9,4.1,3.1,6.7,3.1h74.9c4.9,0,8.9,4,8.9,8.9v34.7
				c0,4.9-4,8.9-8.9,8.9h-54c-2.6,0-5-1.1-6.7-3.1l-45.2-52.8c-1.7-1.9-4.1-3.1-6.7-3.1h-82v-39.5
				C112.2,179.1,117.6,173.8,124.1,173.8z"/>
			<path class="st0" d="M112.2,298.8v-73.9l51.4-9.4v83.4c0,5.4-4.4,9.8-9.8,9.8H122C116.6,308.5,112.2,304.2,112.2,298.8z"/>
			<path class="st0" d="M153.2,121.3h153.6c4.9,0,8.9,4,8.9,8.9v34.7c0,4.9-4,8.9-8.9,8.9H183.1c-2.6,0-5-1.1-6.7-3.1L146.5,136
				C141.5,130.2,145.6,121.3,153.2,121.3z"/>
		</g>
	</g>
	<g>
		<path class="st1" d="M488.1,173.8l-0.8,14.9h-62.4v35.5H469V239h-44.3v45.1h-28.1V173.8H488.1z"/>
		<path class="st1" d="M500.3,198.8h28.1v70.1l48.4-0.1v-70H605v70.6l-13.5,14.8H514h0c-7.6,0-13.7-6.1-13.7-13.7V198.8z"/>
		<path class="st1" d="M768.5,173.8v95.5h38.6v14.9h-53.4c-7.4,0-13.4-6-13.4-13.4v-97H768.5z"/>
		<path class="st1" d="M850.6,188.7v-14.9h98.9l-0.2,14.9h-34.2v95.5h-28.5v-95.5H850.6z"/>
		<path class="st1" d="M626.5,213.7L626.5,213.7c0-8.3,6.7-14.9,14.9-14.9h65.3c6.9,0,13.4,2.9,18,8v0c4,4.5,6.3,10.3,6.3,16.3v16
			L717.5,254h-62.9v15.2h62.8l-2.7,14.9H651c-6.9,0-13.6-2.9-18.2-8.1l0,0c-4.1-4.5-6.3-10.4-6.3-16.5V213.7z M654.6,239.2h48.7
			v-25.5h-48.7V239.2z"/>
		<path class="st1" d="M949.4,213.7L949.4,213.7c0-8.3,6.7-14.9,14.9-14.9h65.3c6.9,0,13.4,2.9,18,8v0c4,4.5,6.3,10.3,6.3,16.3v16
			l-13.5,14.9h-62.9v15.2h62.8l-2.7,14.9H974c-6.9,0-13.6-2.9-18.2-8.1h0c-4.1-4.5-6.3-10.4-6.3-16.5V213.7z M977.6,239.2h48.7
			v-25.5h-48.7V239.2z"/>
		<path class="st1" d="M1077.4,206.8L1077.4,206.8c4.6-5.1,11.1-8.1,18-8.1h66.6v14.9h-62.3v55.6h62.3v14.9h-66.2
			c-6.9,0-13.6-2.9-18.2-8.1v0c-4.1-4.5-6.4-10.4-6.4-16.5V223C1071.2,217,1073.4,211.3,1077.4,206.8z"/>
		<path class="st1" d="M1212.2,173.8v25h62.5l13.2,14.6v70.8h-28.1v-70.5h-48.1v70.5h-28.1V173.8H1212.2z"/>
	</g>
</g>
</svg>
